<mxfile host="Electron" modified="2023-06-28T08:01:47.176Z" agent="Mozilla/5.0 (Windows NT 10.0; Win64; x64) AppleWebKit/537.36 (KHTML, like Gecko) draw.io/21.5.0 Chrome/112.0.5615.204 Electron/24.5.1 Safari/537.36" etag="hmiwzvbqB7n-rvr3PrOz" version="21.5.0" type="device">
  <diagram name="Pagina-1" id="53_TxDTbxMPhhyfTPPzY">
    <mxGraphModel dx="2940" dy="1171" grid="1" gridSize="10" guides="1" tooltips="1" connect="1" arrows="1" fold="1" page="1" pageScale="1" pageWidth="2336" pageHeight="1654" math="0" shadow="0">
      <root>
        <mxCell id="0" />
        <mxCell id="1" parent="0" />
        <mxCell id="UTxYIToO1LUAdXVs8DcE-27" style="edgeStyle=orthogonalEdgeStyle;rounded=0;orthogonalLoop=1;jettySize=auto;html=1;exitX=0.5;exitY=0;exitDx=0;exitDy=0;entryX=1;entryY=0.5;entryDx=0;entryDy=0;endArrow=open;endFill=0;" parent="1" source="UTxYIToO1LUAdXVs8DcE-1" target="UTxYIToO1LUAdXVs8DcE-18" edge="1">
          <mxGeometry relative="1" as="geometry" />
        </mxCell>
        <mxCell id="UTxYIToO1LUAdXVs8DcE-1" value="&amp;lt;&amp;lt;controller&amp;gt;&amp;gt;&lt;br&gt;KitchenController" style="swimlane;fontStyle=1;align=center;verticalAlign=top;childLayout=stackLayout;horizontal=1;startSize=40;horizontalStack=0;resizeParent=1;resizeParentMax=0;resizeLast=0;collapsible=1;marginBottom=0;whiteSpace=wrap;html=1;" parent="1" vertex="1">
          <mxGeometry x="750" y="340" width="350" height="100" as="geometry" />
        </mxCell>
        <mxCell id="UTxYIToO1LUAdXVs8DcE-3" value="" style="line;strokeWidth=1;fillColor=none;align=left;verticalAlign=middle;spacingTop=-1;spacingLeft=3;spacingRight=3;rotatable=0;labelPosition=right;points=[];portConstraint=eastwest;strokeColor=inherit;" parent="UTxYIToO1LUAdXVs8DcE-1" vertex="1">
          <mxGeometry y="40" width="350" height="8" as="geometry" />
        </mxCell>
        <mxCell id="UTxYIToO1LUAdXVs8DcE-4" value="+ searchRecipe(kitchenBean: KitchenBean): List&amp;lt;RecipeBean&amp;gt;" style="text;strokeColor=none;fillColor=none;align=left;verticalAlign=top;spacingLeft=4;spacingRight=4;overflow=hidden;rotatable=0;points=[[0,0.5],[1,0.5]];portConstraint=eastwest;whiteSpace=wrap;html=1;" parent="UTxYIToO1LUAdXVs8DcE-1" vertex="1">
          <mxGeometry y="48" width="350" height="52" as="geometry" />
        </mxCell>
        <mxCell id="UTxYIToO1LUAdXVs8DcE-5" value="&lt;b&gt;Use case: generate recipe&lt;/b&gt;" style="text;html=1;strokeColor=none;fillColor=none;align=center;verticalAlign=middle;whiteSpace=wrap;rounded=0;" parent="1" vertex="1">
          <mxGeometry x="590" y="70" width="100" height="50" as="geometry" />
        </mxCell>
        <mxCell id="UTxYIToO1LUAdXVs8DcE-26" style="edgeStyle=orthogonalEdgeStyle;rounded=0;orthogonalLoop=1;jettySize=auto;html=1;exitX=0.5;exitY=0;exitDx=0;exitDy=0;endArrow=open;endFill=0;" parent="1" source="UTxYIToO1LUAdXVs8DcE-6" edge="1">
          <mxGeometry relative="1" as="geometry">
            <mxPoint x="367.8333333333335" y="360" as="targetPoint" />
          </mxGeometry>
        </mxCell>
        <mxCell id="UTxYIToO1LUAdXVs8DcE-29" style="edgeStyle=orthogonalEdgeStyle;rounded=0;orthogonalLoop=1;jettySize=auto;html=1;exitX=0.474;exitY=1.026;exitDx=0;exitDy=0;exitPerimeter=0;entryX=0;entryY=0.5;entryDx=0;entryDy=0;endArrow=open;endFill=0;" parent="1" source="UTxYIToO1LUAdXVs8DcE-9" target="UTxYIToO1LUAdXVs8DcE-15" edge="1">
          <mxGeometry relative="1" as="geometry">
            <mxPoint x="534.88" y="640" as="targetPoint" />
            <mxPoint x="399.7600000000001" y="655" as="sourcePoint" />
            <Array as="points">
              <mxPoint x="359" y="755" />
            </Array>
          </mxGeometry>
        </mxCell>
        <mxCell id="UTxYIToO1LUAdXVs8DcE-6" value="&amp;lt;&amp;lt;boundary&amp;gt;&amp;gt;&lt;br&gt;KitchenBoundary" style="swimlane;fontStyle=1;align=center;verticalAlign=top;childLayout=stackLayout;horizontal=1;startSize=40;horizontalStack=0;resizeParent=1;resizeParentMax=0;resizeLast=0;collapsible=1;marginBottom=0;whiteSpace=wrap;html=1;" parent="1" vertex="1">
          <mxGeometry x="200" y="480" width="334.88" height="100" as="geometry" />
        </mxCell>
        <mxCell id="UTxYIToO1LUAdXVs8DcE-8" value="" style="line;strokeWidth=1;fillColor=none;align=left;verticalAlign=middle;spacingTop=-1;spacingLeft=3;spacingRight=3;rotatable=0;labelPosition=right;points=[];portConstraint=eastwest;strokeColor=inherit;" parent="UTxYIToO1LUAdXVs8DcE-6" vertex="1">
          <mxGeometry y="40" width="334.88" height="8" as="geometry" />
        </mxCell>
        <mxCell id="UTxYIToO1LUAdXVs8DcE-9" value="+ confirmIngredients()&lt;br&gt;+showRecipe(recipeBeans: List&amp;lt;RecipeBean&amp;gt;)" style="text;strokeColor=none;fillColor=none;align=left;verticalAlign=top;spacingLeft=4;spacingRight=4;overflow=hidden;rotatable=0;points=[[0,0.5],[1,0.5]];portConstraint=eastwest;whiteSpace=wrap;html=1;" parent="UTxYIToO1LUAdXVs8DcE-6" vertex="1">
          <mxGeometry y="48" width="334.88" height="52" as="geometry" />
        </mxCell>
        <mxCell id="UTxYIToO1LUAdXVs8DcE-10" value="&amp;lt;&amp;lt;entity&amp;gt;&amp;gt;&lt;br&gt;Kitchen" style="swimlane;fontStyle=1;align=center;verticalAlign=top;childLayout=stackLayout;horizontal=1;startSize=40;horizontalStack=0;resizeParent=1;resizeParentMax=0;resizeLast=0;collapsible=1;marginBottom=0;whiteSpace=wrap;html=1;" parent="1" vertex="1">
          <mxGeometry x="1200" y="470" width="334.88" height="128" as="geometry" />
        </mxCell>
        <mxCell id="UTxYIToO1LUAdXVs8DcE-11" value="- ingredient1: String&lt;br style=&quot;border-color: var(--border-color);&quot;&gt;- ingredient2: String&lt;br style=&quot;border-color: var(--border-color);&quot;&gt;- ingredient3: String&lt;br style=&quot;border-color: var(--border-color);&quot;&gt;- ingredient4: String&lt;br style=&quot;border-color: var(--border-color);&quot;&gt;- ingredient5: String" style="text;strokeColor=none;fillColor=none;align=left;verticalAlign=top;spacingLeft=4;spacingRight=4;overflow=hidden;rotatable=0;points=[[0,0.5],[1,0.5]];portConstraint=eastwest;whiteSpace=wrap;html=1;" parent="UTxYIToO1LUAdXVs8DcE-10" vertex="1">
          <mxGeometry y="40" width="334.88" height="80" as="geometry" />
        </mxCell>
        <mxCell id="UTxYIToO1LUAdXVs8DcE-12" value="" style="line;strokeWidth=1;fillColor=none;align=left;verticalAlign=middle;spacingTop=-1;spacingLeft=3;spacingRight=3;rotatable=0;labelPosition=right;points=[];portConstraint=eastwest;strokeColor=inherit;" parent="UTxYIToO1LUAdXVs8DcE-10" vertex="1">
          <mxGeometry y="120" width="334.88" height="8" as="geometry" />
        </mxCell>
        <mxCell id="UTxYIToO1LUAdXVs8DcE-14" value="&amp;lt;&amp;lt;bean&amp;gt;&amp;gt;&lt;br&gt;RecipeBean" style="swimlane;fontStyle=1;align=center;verticalAlign=top;childLayout=stackLayout;horizontal=1;startSize=40;horizontalStack=0;resizeParent=1;resizeParentMax=0;resizeLast=0;collapsible=1;marginBottom=0;whiteSpace=wrap;html=1;" parent="1" vertex="1">
          <mxGeometry x="640" y="680" width="334.88" height="118" as="geometry" />
        </mxCell>
        <mxCell id="UTxYIToO1LUAdXVs8DcE-15" value="- recipeName: String&lt;br&gt;- description: String&lt;br&gt;- chefName: String&lt;br&gt;- path: String" style="text;strokeColor=none;fillColor=none;align=left;verticalAlign=top;spacingLeft=4;spacingRight=4;overflow=hidden;rotatable=0;points=[[0,0.5],[1,0.5]];portConstraint=eastwest;whiteSpace=wrap;html=1;" parent="UTxYIToO1LUAdXVs8DcE-14" vertex="1">
          <mxGeometry y="40" width="334.88" height="70" as="geometry" />
        </mxCell>
        <mxCell id="UTxYIToO1LUAdXVs8DcE-16" value="" style="line;strokeWidth=1;fillColor=none;align=left;verticalAlign=middle;spacingTop=-1;spacingLeft=3;spacingRight=3;rotatable=0;labelPosition=right;points=[];portConstraint=eastwest;strokeColor=inherit;" parent="UTxYIToO1LUAdXVs8DcE-14" vertex="1">
          <mxGeometry y="110" width="334.88" height="8" as="geometry" />
        </mxCell>
        <mxCell id="UTxYIToO1LUAdXVs8DcE-18" value="&amp;lt;&amp;lt;bean&amp;gt;&amp;gt;&lt;br&gt;KitchenBean" style="swimlane;fontStyle=1;align=center;verticalAlign=top;childLayout=stackLayout;horizontal=1;startSize=40;horizontalStack=0;resizeParent=1;resizeParentMax=0;resizeLast=0;collapsible=1;marginBottom=0;whiteSpace=wrap;html=1;" parent="1" vertex="1">
          <mxGeometry x="240" y="230" width="334.88" height="128" as="geometry" />
        </mxCell>
        <mxCell id="UTxYIToO1LUAdXVs8DcE-19" value="- ingredient1: String&lt;br&gt;- ingredient2: String&lt;br&gt;- ingredient3: String&lt;br&gt;- ingredient4: String&lt;br&gt;- ingredient5: String" style="text;strokeColor=none;fillColor=none;align=left;verticalAlign=top;spacingLeft=4;spacingRight=4;overflow=hidden;rotatable=0;points=[[0,0.5],[1,0.5]];portConstraint=eastwest;whiteSpace=wrap;html=1;" parent="UTxYIToO1LUAdXVs8DcE-18" vertex="1">
          <mxGeometry y="40" width="334.88" height="80" as="geometry" />
        </mxCell>
        <mxCell id="UTxYIToO1LUAdXVs8DcE-20" value="" style="line;strokeWidth=1;fillColor=none;align=left;verticalAlign=middle;spacingTop=-1;spacingLeft=3;spacingRight=3;rotatable=0;labelPosition=right;points=[];portConstraint=eastwest;strokeColor=inherit;" parent="UTxYIToO1LUAdXVs8DcE-18" vertex="1">
          <mxGeometry y="120" width="334.88" height="8" as="geometry" />
        </mxCell>
        <mxCell id="UTxYIToO1LUAdXVs8DcE-24" style="edgeStyle=orthogonalEdgeStyle;rounded=0;orthogonalLoop=1;jettySize=auto;html=1;exitX=1;exitY=0.5;exitDx=0;exitDy=0;entryX=0.524;entryY=-0.008;entryDx=0;entryDy=0;entryPerimeter=0;endArrow=open;endFill=0;" parent="1" source="UTxYIToO1LUAdXVs8DcE-4" target="UTxYIToO1LUAdXVs8DcE-10" edge="1">
          <mxGeometry relative="1" as="geometry" />
        </mxCell>
        <mxCell id="UTxYIToO1LUAdXVs8DcE-25" style="edgeStyle=orthogonalEdgeStyle;rounded=0;orthogonalLoop=1;jettySize=auto;html=1;exitX=1;exitY=0.5;exitDx=0;exitDy=0;entryX=0.257;entryY=1;entryDx=0;entryDy=0;entryPerimeter=0;endArrow=open;endFill=0;" parent="1" source="UTxYIToO1LUAdXVs8DcE-9" target="UTxYIToO1LUAdXVs8DcE-4" edge="1">
          <mxGeometry relative="1" as="geometry" />
        </mxCell>
        <mxCell id="UTxYIToO1LUAdXVs8DcE-30" style="edgeStyle=orthogonalEdgeStyle;rounded=0;orthogonalLoop=1;jettySize=auto;html=1;exitX=1;exitY=0.5;exitDx=0;exitDy=0;entryX=0.835;entryY=0.004;entryDx=0;entryDy=0;entryPerimeter=0;endArrow=open;endFill=0;" parent="1" target="UTxYIToO1LUAdXVs8DcE-14" edge="1">
          <mxGeometry relative="1" as="geometry">
            <mxPoint x="920.3333333333335" y="536" as="targetPoint" />
            <mxPoint x="920" y="440" as="sourcePoint" />
          </mxGeometry>
        </mxCell>
        <mxCell id="sPLysexoVObwL9bbXaGs-1" value="&amp;lt;&amp;lt;entity&amp;gt;&amp;gt;&lt;br&gt;Recipe" style="swimlane;fontStyle=1;align=center;verticalAlign=top;childLayout=stackLayout;horizontal=1;startSize=40;horizontalStack=0;resizeParent=1;resizeParentMax=0;resizeLast=0;collapsible=1;marginBottom=0;whiteSpace=wrap;html=1;" vertex="1" parent="1">
          <mxGeometry x="1200" y="680" width="220" height="118" as="geometry" />
        </mxCell>
        <mxCell id="sPLysexoVObwL9bbXaGs-2" value="- recipeName: String&lt;br&gt;- description: String&lt;br&gt;- chefName: String&lt;br&gt;- path: String" style="text;strokeColor=none;fillColor=none;align=left;verticalAlign=top;spacingLeft=4;spacingRight=4;overflow=hidden;rotatable=0;points=[[0,0.5],[1,0.5]];portConstraint=eastwest;whiteSpace=wrap;html=1;" vertex="1" parent="sPLysexoVObwL9bbXaGs-1">
          <mxGeometry y="40" width="220" height="70" as="geometry" />
        </mxCell>
        <mxCell id="sPLysexoVObwL9bbXaGs-3" value="" style="line;strokeWidth=1;fillColor=none;align=left;verticalAlign=middle;spacingTop=-1;spacingLeft=3;spacingRight=3;rotatable=0;labelPosition=right;points=[];portConstraint=eastwest;strokeColor=inherit;" vertex="1" parent="sPLysexoVObwL9bbXaGs-1">
          <mxGeometry y="110" width="220" height="8" as="geometry" />
        </mxCell>
        <mxCell id="sPLysexoVObwL9bbXaGs-5" value="" style="endArrow=open;html=1;rounded=0;exitX=0.833;exitY=1;exitDx=0;exitDy=0;exitPerimeter=0;endFill=0;entryX=0;entryY=0.25;entryDx=0;entryDy=0;" edge="1" parent="1" source="UTxYIToO1LUAdXVs8DcE-4" target="sPLysexoVObwL9bbXaGs-1">
          <mxGeometry width="50" height="50" relative="1" as="geometry">
            <mxPoint x="910" y="540" as="sourcePoint" />
            <mxPoint x="1290" y="680.952380952381" as="targetPoint" />
            <Array as="points">
              <mxPoint x="1042" y="709" />
            </Array>
          </mxGeometry>
        </mxCell>
      </root>
    </mxGraphModel>
  </diagram>
</mxfile>
